<?xml version="1.0" standalone="no"?><!DOCTYPE svg PUBLIC "-//W3C//DTD SVG 1.1//EN" "http://www.w3.org/Graphics/SVG/1.1/DTD/svg11.dtd"><svg t="1713408446462" class="icon" viewBox="0 0 1024 1024" version="1.1" xmlns="http://www.w3.org/2000/svg" p-id="16213" xmlns:xlink="http://www.w3.org/1999/xlink" width="200" height="200"><path d="M163 871.5l-6-6 6-6c1.5-1.5 1.5-3.9 0-5.4-1.5-1.5-3.9-1.5-5.4 0l-6 6-6-6c-1.5-1.5-3.9-1.5-5.4 0s-1.5 3.9 0 5.4l6 6-6 6c-1.5 1.5-1.5 3.9 0 5.4s3.9 1.5 5.4 0l6-6 6 6c1.5 1.5 3.9 1.5 5.4 0 1.5-1.5 1.5-3.9 0-5.4zM878.8 861.7h-8.4v-8.4c0-2.1-1.7-3.8-3.8-3.8s-3.8 1.7-3.8 3.8v8.4h-8.4c-2.1 0-3.8 1.7-3.8 3.8 0 2.1 1.7 3.8 3.8 3.8h8.4v8.4c0 2.1 1.7 3.8 3.8 3.8s3.8-1.7 3.8-3.8v-8.4h8.4c2.1 0 3.8-1.7 3.8-3.8 0-2.1-1.7-3.8-3.8-3.8zM794.1 286.7c-11.6 0-21-9.4-21-21s9.4-21 21-21 21 9.4 21 21-9.4 21-21 21z m0-32c-6.1 0-11 4.9-11 11s4.9 11 11 11 11-4.9 11-11-4.9-11-11-11zM174.7 225.7c-2.3 0-4.2 1.9-4.2 4.2v13.4c0 2.3 1.9 4.2 4.2 4.2 2.3 0 4.2-1.9 4.2-4.2v-13.4c0-2.4-1.9-4.2-4.2-4.2zM174.7 265.7c-2.3 0-4.2 1.9-4.2 4.2v13.4c0 2.3 1.9 4.2 4.2 4.2 2.3 0 4.2-1.9 4.2-4.2v-13.4c0-2.3-1.9-4.2-4.2-4.2zM187.1 263c-1.6-1.6-4.3-1.6-5.9 0-1.6 1.6-1.6 4.3 0 5.9l9.4 9.4c0.8 0.8 1.9 1.2 3 1.2s2.1-0.4 3-1.2c1.6-1.6 1.6-4.3 0-5.9l-9.5-9.4zM158.8 234.7c-1.6-1.6-4.3-1.6-5.9 0-1.6 1.6-1.6 4.3 0 5.9l9.4 9.4c0.8 0.8 1.9 1.2 3 1.2s2.1-0.4 3-1.2c1.6-1.6 1.6-4.3 0-5.9l-9.5-9.4zM162.3 263l-9.4 9.4c-1.6 1.6-1.6 4.3 0 5.9 0.8 0.8 1.9 1.2 3 1.2s2.1-0.4 3-1.2l9.4-9.4c1.6-1.6 1.6-4.3 0-5.9-1.7-1.6-4.4-1.6-6 0zM184.2 251.3c1.1 0 2.1-0.4 3-1.2l9.4-9.4c1.6-1.6 1.6-4.3 0-5.9-1.6-1.6-4.3-1.6-5.9 0l-9.4 9.4c-1.6 1.6-1.6 4.3 0 5.9 0.7 0.8 1.8 1.2 2.9 1.2zM201.4 252.4H188c-2.3 0-4.2 1.9-4.2 4.2 0 2.3 1.9 4.2 4.2 4.2h13.4c2.3 0 4.2-1.9 4.2-4.2 0-2.4-1.9-4.2-4.2-4.2zM165.5 256.5c0-2.3-1.9-4.2-4.2-4.2H148c-2.3 0-4.2 1.9-4.2 4.2 0 2.3 1.9 4.2 4.2 4.2h13.4c2.2 0 4.1-1.9 4.1-4.2z" fill="#036EB8" p-id="16214"></path><path d="M121.4 333.6m-8.9 0a8.9 8.9 0 1 0 17.8 0 8.9 8.9 0 1 0-17.8 0Z" fill="#036EB8" p-id="16215"></path><path d="M784.2 881.7m-8.9 0a8.9 8.9 0 1 0 17.8 0 8.9 8.9 0 1 0-17.8 0Z" fill="#036EB8" p-id="16216"></path><path d="M859.3 233.5m-8.9 0a8.9 8.9 0 1 0 17.8 0 8.9 8.9 0 1 0-17.8 0Z" fill="#036EB8" p-id="16217"></path><path d="M674.5 598.3l-18.9-20.2L538 684.9l17.7 21.2z" fill="#F7F8F8" p-id="16218"></path><path d="M774.2 356.9v42.5c12.3 11.7 19.9 28.1 19.9 46.4 0 18.2-7.6 34.7-19.9 46.4v169l62.1 66.4V356.9c0-20.9-17.1-38-38-38h-62.1c20.9 0 38 17.1 38 38z" fill="#2EA7E0" p-id="16219"></path><path d="M374.3 537.7c12.4-15.1 20.4-24.8 20.4-24.8l143.3 172 17.7 21.2 118.8-107.9 22.2-20.1 77.6 83v-169c-11.5 10.9-27 17.6-44.1 17.6-3.7 0-7.4-0.3-10.9-0.9-3.5 0.6-7.2 0.9-10.9 0.9-35.3 0-64-28.7-64-64s28.7-64 64-64c3.7 0 7.4 0.3 10.9 0.9 3.5-0.6 7.2-0.9 10.9-0.9 17.1 0 32.6 6.7 44.1 17.6v-42.5c0-20.9-17.1-38-38-38h-458c-20.9 0-38 17.1-38 38v293.9c47-57.1 113.4-137.8 113.4-137.8l20.6 24.8z" fill="#F7F8F8" p-id="16220"></path><path d="M772.3 445.7c0-31.6-22.9-57.9-53.1-63.1-30.1 5.2-53.1 31.4-53.1 63.1 0 31.6 22.9 57.9 53.1 63.1 30.2-5.2 53.1-31.5 53.1-63.1z" fill="#F7F8F8" p-id="16221"></path><path d="M794.1 445.7c0-18.2-7.6-34.7-19.9-46.4V492c12.3-11.6 19.9-28 19.9-46.3zM730.1 381.7c-3.7 0-7.4 0.3-10.9 0.9 30.1 5.2 53.1 31.4 53.1 63.1 0 31.6-22.9 57.9-53.1 63.1 3.5 0.6 7.2 0.9 10.9 0.9 17.1 0 32.6-6.7 44.1-17.6v-92.7c-11.5-11-27-17.7-44.1-17.7z" fill="#2EA7E0" p-id="16222"></path><path d="M374.3 537.7L353.6 513s-66.5 80.7-113.4 137.8v49.9c19.4-23.7 96.7-117.6 134.1-163z" fill="#F7F8F8" p-id="16223"></path><path d="M836.3 792.9v-65.4l-62.1-66.4V705l60.9 65.1h-0.5v22.8c0 20.9-17.1 38-38 38h1.7c20.9 0 38-17.1 38-38z" fill="#2EA7E0" p-id="16224"></path><path d="M674.5 598.3L774.2 705v-43.9l-77.6-83zM374.3 537.7l140.4 168.4 23.4-21.2L394.6 513s-7.9 9.7-20.3 24.7z" fill="#2EA7E0" p-id="16225"></path><path d="M834.6 792.9v-22.8h0.5L774.2 705v87.9c0 20.9-17.1 38-38 38h60.4c20.9 0 38-17.1 38-38z" fill="#F7F8F8" p-id="16226"></path><path d="M774.2 792.9V705l-99.8-106.7-118.7 107.8-17.7-21.2-23.4 21.2-140.3-168.4C336.9 583.1 259.6 677 240.2 700.6v92.3c0 20.9 17.1 38 38 38h458c20.9 0 38-17.1 38-38z" fill="#F7F8F8" p-id="16227"></path><path d="M835.1 640.9c-5.5 0-10 4.5-10 10v30.7c0 5.5 4.5 10 10 10s10-4.5 10-10v-30.7c0-5.6-4.5-10-10-10zM195.1 417.9c5.5 0 10-4.5 10-10v-51c0-15.4 12.6-28 28-28h564c15.4 0 28 12.6 28 28v259.3c0 5.5 4.5 10 10 10s10-4.5 10-10V356.9c0-26.5-21.5-48-48-48h-564c-26.5 0-48 21.5-48 48v51c0 5.5 4.5 10 10 10z" fill="#036EB8" p-id="16228"></path><path d="M663.1 571l-0.4-0.4c-0.1-0.1-0.3-0.2-0.4-0.3-0.1-0.1-0.3-0.2-0.4-0.3-0.1-0.1-0.3-0.2-0.4-0.3-0.1-0.1-0.3-0.2-0.4-0.3-0.1-0.1-0.3-0.2-0.4-0.2-0.1-0.1-0.3-0.2-0.4-0.2-0.2-0.1-0.3-0.1-0.5-0.2-0.1-0.1-0.3-0.1-0.4-0.2-0.2-0.1-0.3-0.1-0.5-0.1s-0.3-0.1-0.5-0.1-0.3-0.1-0.5-0.1-0.3-0.1-0.5-0.1h-2.5c-0.2 0-0.3 0-0.5 0.1-0.2 0-0.3 0.1-0.5 0.1s-0.3 0.1-0.5 0.1-0.3 0.1-0.4 0.1c-0.2 0-0.3 0.1-0.5 0.1-0.2 0.1-0.3 0.1-0.4 0.2-0.2 0.1-0.3 0.1-0.5 0.2s-0.3 0.2-0.4 0.2c-0.1 0.1-0.3 0.1-0.4 0.2-0.1 0.1-0.3 0.2-0.4 0.3-0.1 0.1-0.3 0.2-0.4 0.3-0.1 0.1-0.3 0.2-0.4 0.3l-0.3 0.3-133.3 121-80.8-97c-3.5-4.2-9.8-4.8-14.1-1.3-4.2 3.5-4.8 9.8-1.3 14.1l87.5 105 0.1 0.1c0.1 0.1 0.1 0.1 0.1 0.2l0.3 0.3c0.1 0.1 0.2 0.3 0.4 0.4l0.4 0.4c0.1 0.1 0.3 0.2 0.4 0.3 0.2 0.1 0.3 0.2 0.5 0.3 0.1 0.1 0.3 0.2 0.4 0.3 0.2 0.1 0.3 0.2 0.5 0.3 0.1 0.1 0.3 0.1 0.4 0.2 0.2 0.1 0.4 0.2 0.6 0.2 0.1 0.1 0.3 0.1 0.4 0.2 0.2 0.1 0.4 0.1 0.6 0.2 0.1 0 0.3 0.1 0.4 0.1 0.2 0 0.5 0.1 0.7 0.1 0.1 0 0.2 0 0.4 0.1h2.1c0.2 0 0.5-0.1 0.7-0.1 0.1 0 0.2 0 0.3-0.1 0.2 0 0.4-0.1 0.6-0.1 0.1 0 0.2-0.1 0.3-0.1 0.2-0.1 0.3-0.1 0.5-0.2 0.1 0 0.2-0.1 0.4-0.1 0.2-0.1 0.3-0.1 0.5-0.2 0.1-0.1 0.2-0.1 0.4-0.2 0.1-0.1 0.3-0.1 0.4-0.2 0.1-0.1 0.2-0.2 0.4-0.2 0.1-0.1 0.3-0.2 0.4-0.3 0.1-0.1 0.2-0.2 0.4-0.3 0.1-0.1 0.2-0.1 0.2-0.2 0.1 0 0.1-0.1 0.1-0.1 0.1 0 0.1-0.1 0.2-0.1l133.7-121.4 44.3 47.4c2 2.1 4.6 3.2 7.3 3.2 2.4 0 4.9-0.9 6.8-2.7 4-3.8 4.2-10.1 0.5-14.1l-51-54.6c-0.1-0.3-0.2-0.4-0.3-0.5z" fill="#036EB8" p-id="16229"></path><path d="M845.1 767v-56.8c0-5.5-4.5-10-10-10s-10 4.5-10 10v34.1L731.4 644c-3.8-4-10.1-4.2-14.1-0.5-4 3.8-4.2 10.1-0.5 14.1l108.3 115.9v19.3c0 15.4-12.6 28-28 28h-564c-15.4 0-28-12.6-28-28v-83.2l149-181.1 47 56.4c2 2.4 4.8 3.6 7.7 3.6 2.3 0 4.5-0.8 6.4-2.3 4.2-3.5 4.8-9.8 1.3-14.1l-54.6-65.5-0.1-0.1c-0.1-0.1-0.1-0.2-0.2-0.2-0.1-0.2-0.3-0.3-0.4-0.4l-0.4-0.4-0.2-0.2c-0.2-0.2-0.4-0.3-0.6-0.4-0.1-0.1-0.2-0.1-0.2-0.2l-0.6-0.3c-0.1-0.1-0.2-0.1-0.3-0.2-0.2-0.1-0.3-0.2-0.5-0.2-0.1-0.1-0.3-0.1-0.4-0.2-0.1 0-0.2-0.1-0.3-0.1-0.2-0.1-0.4-0.1-0.6-0.2-0.1 0-0.1 0-0.2-0.1-0.2-0.1-0.5-0.1-0.7-0.2h-0.2c-0.2 0-0.5-0.1-0.7-0.1H353.4c-0.3 0-0.5 0.1-0.8 0.1h-0.1c-0.3 0-0.5 0.1-0.8 0.2h-0.2c-0.2 0.1-0.4 0.1-0.6 0.2-0.1 0-0.2 0.1-0.3 0.1-0.2 0.1-0.3 0.1-0.4 0.2-0.2 0.1-0.3 0.1-0.5 0.2-0.1 0.1-0.2 0.1-0.3 0.2l-0.6 0.3c-0.1 0.1-0.2 0.1-0.2 0.2-0.2 0.1-0.4 0.3-0.6 0.4l-0.2 0.2c-0.2 0.1-0.3 0.3-0.4 0.4-0.1 0.1-0.3 0.3-0.4 0.5-0.1 0.1-0.1 0.2-0.2 0.2l-0.1 0.1-141.6 171.7V444.9c0-5.5-4.5-10-10-10s-10 4.5-10 10v348c0 26.5 21.5 48 48 48h564c26.5 0 48-21.5 48-48v-19.6c0.7-2 0.7-4.2 0-6.3zM781.1 445.7c0-40.8-33.2-74-74-74s-74 33.2-74 74 33.2 74 74 74 74-33.2 74-74z m-74 54c-29.8 0-54-24.2-54-54s24.2-54 54-54 54 24.2 54 54-24.2 54-54 54z" fill="#036EB8" p-id="16230"></path><path d="M494.5 516.5m-16 0a16 16 0 1 0 32 0 16 16 0 1 0-32 0Z" fill="#3E3A39" p-id="16231"></path><path d="M462.5 543.1m-16 0a16 16 0 1 0 32 0 16 16 0 1 0-32 0Z" fill="#EF6676" p-id="16232"></path><path d="M634.1 543.1m-16 0a16 16 0 1 0 32 0 16 16 0 1 0-32 0Z" fill="#EF6676" p-id="16233"></path><path d="M602.1 516.5m-16 0a16 16 0 1 0 32 0 16 16 0 1 0-32 0Z" fill="#3E3A39" p-id="16234"></path><path d="M573.6 527.1H523c-3.9 0-6.7 3.7-5.8 7.5 1.8 7.5 6.3 14 12.3 18.4 5.3 3.8 11.8 6.1 18.8 6.1s13.5-2.3 18.8-6.1c6.1-4.4 10.5-10.9 12.3-18.4 0.9-3.8-1.9-7.5-5.8-7.5z" fill="#3E3A39" p-id="16235"></path><path d="M548.3 543.1c-7 0-13.3 3.2-17.5 8.2-0.8 0.9-0.5 2.3 0.5 3 4.9 3.1 10.7 4.9 17 4.9 6.2 0 12.1-1.8 17-4.9 1-0.6 1.3-2 0.5-3-4.2-5-10.5-8.2-17.5-8.2z" fill="#E4847F" p-id="16236"></path></svg>